<?xml version="1.0" encoding="utf-8"?>
<!-- Generator: Adobe Illustrator 21.1.0, SVG Export Plug-In . SVG Version: 6.00 Build 0)  -->
<svg version="1.1" id="Layer_1" xmlns="http://www.w3.org/2000/svg" xmlns:xlink="http://www.w3.org/1999/xlink" x="0px" y="0px"
	 viewBox="0 0 699.1 545.4" style="enable-background:new 0 0 699.1 545.4;" xml:space="preserve">
<style type="text/css">
	.st0{fill:#055FA6;}
	.st1{fill:#DEE0E2;}
	.st2{fill:#00823B;}
</style>
<rect y="121.3" class="st0" width="699.1" height="424.1"/>
<polygon class="st0" points="296,0 236,0 100,0 0,0 0,140 100,140 236,140 336,140 "/>
<g>
	<polygon class="st1" points="50,495.4 50,50 258.3,50 292.9,171.3 649.1,171.3 649.1,495.4 	"/>
	<path class="st2" d="M220.6,100l13.9,48.7l20.7,72.5h75.4h268.5v224.1H100V140v-18.7V100H220.6 M296,0h-60H100H0v121.3V140v405.4
		h699.1V121.3H330.6L296,0L296,0z"/>
</g>
</svg>
